<?xml version="1.0" standalone="no"?>
<!DOCTYPE svg PUBLIC "-//W3C//DTD SVG 20010904//EN"
 "http://www.w3.org/TR/2001/REC-SVG-20010904/DTD/svg10.dtd">
<svg version="1.0" xmlns="http://www.w3.org/2000/svg"
 width="512.000000pt" height="512.000000pt" viewBox="0 0 512.000000 512.000000"
 preserveAspectRatio="xMidYMid meet">
<metadata>
Created by potrace 1.11, written by Peter Selinger 2001-2013
</metadata>
<g transform="translate(0.000000,512.000000) scale(0.100000,-0.100000)"
fill="#000000" stroke="none">
<path d="M2210 4769 c-36 -4 -83 -10 -105 -14 -22 -4 -53 -9 -70 -12 -263 -43
-614 -209 -841 -398 -103 -86 -233 -221 -299 -310 -17 -22 -32 -42 -35 -45
-21 -19 -122 -192 -166 -284 -89 -186 -148 -393 -171 -606 -10 -86 -9 -317 1
-405 6 -60 13 -99 42 -245 12 -62 89 -274 130 -358 100 -207 215 -363 415
-564 121 -120 142 -147 178 -220 70 -144 74 -174 76 -593 l1 -370 852 -2 852
-3 1 148 c0 81 2 156 4 167 18 97 68 176 145 231 32 22 131 60 340 129 162 54
318 109 345 122 82 40 148 117 177 205 6 20 11 169 12 386 2 200 6 356 12 362
5 5 101 40 212 78 210 72 251 95 274 152 17 40 17 102 1 135 -13 25 -75 109
-93 125 -4 4 -171 203 -272 325 -9 11 -44 53 -77 93 -34 41 -62 81 -62 90 -2
18 -2 20 -13 112 -44 349 -180 687 -385 955 -63 83 -222 241 -305 302 -155
115 -321 197 -507 252 -103 30 -131 37 -199 46 -19 3 -51 8 -70 11 -56 9 -329
11 -400 3z m431 -1034 c43 -23 81 -79 86 -128 6 -55 -339 -1778 -363 -1816
-42 -64 -97 -89 -175 -78 -76 10 -139 83 -139 161 0 18 23 144 50 282 28 137
52 258 54 269 3 11 19 92 36 180 18 88 34 169 36 180 2 11 6 31 9 45 28 148
158 782 167 811 28 94 147 141 239 94z m-1022 -346 c67 -41 98 -109 81 -182
-5 -22 -69 -129 -154 -257 l-146 -220 141 -212 c78 -116 148 -226 155 -244 25
-60 5 -133 -50 -182 -56 -49 -149 -56 -206 -14 -14 10 -111 146 -216 303 -203
303 -214 326 -190 399 11 32 333 526 375 574 50 58 146 74 210 35z m1712 -1
c48 -32 416 -583 421 -630 2 -18 -1 -49 -5 -68 -13 -50 -368 -582 -408 -611
-22 -15 -51 -24 -88 -27 -48 -3 -62 1 -99 25 -47 31 -82 91 -82 142 0 45 21
82 174 310 l135 200 -140 211 c-144 217 -169 262 -169 302 2 65 56 142 114
160 48 14 113 8 147 -14z"/>
</g>
</svg>
